# xmcd
#
# Track frame offsets:
#	150
#	18947
#	31002
#	50227
#	64487
#	78620
#	91470
#	106527
#	117842
#	131987
#
# Disc length: 1966 seconds
#
# Revision: 4
# Processed by: cddbd v1.5.2PL0 Copyright (c) Steve Scherf et al.
# Submitted via: EZCDAudioConverter 7.1.4.1
#
DISCID=8307ac0a
DTITLE=George Jones and Tammy Wynette - One
DYEAR=1995
DGENRE=Country
TTITLE0=One
TTITLE1=It's an Old Love Thing
TTITLE2=What Ever Happened to Us
TTITLE3=Will You Travel Down This Road with Me
TTITLE4=(She's Just) An Old Love Turned Memory
TTITLE5=If God Met You
TTITLE6=Just Look What We've Started Again
TTITLE7=Solid as a Rock
TTITLE8=They're Playing Our Song
TTITLE9=All I Have to Offer You Is Me
EXTD=
EXTT0=
EXTT1=
EXTT2=
EXTT3=
EXTT4=
EXTT5=
EXTT6=
EXTT7=
EXTT8=
EXTT9=
PLAYORDER=
